HIERARCHY
ROOT joint_Root
{
	OFFSET 0.0 0.0 0.0
	CHANNELS 6 Xposition Yposition Zposition Zrotation Xrotation Yrotation 
	JOINT Hips
	{
		OFFSET 4.5925 91.4895 -427.239
		CHANNELS 6 Xposition Yposition Zposition Zrotation Xrotation Yrotation 
		JOINT Spine
		{
			OFFSET 15.7357 0.0 0.0
			CHANNELS 6 Xposition Yposition Zposition Zrotation Xrotation Yrotation 
			JOINT Chest
			{
				OFFSET 8.98455 -0.406207 0.0
				CHANNELS 6 Xposition Yposition Zposition Zrotation Xrotation Yrotation 
				JOINT Neck
				{
					OFFSET 16.3773 0.0 0.0
					CHANNELS 6 Xposition Yposition Zposition Zrotation Xrotation Yrotation 
					JOINT Head
					{
						OFFSET 6.45672 0.0 0.0
						CHANNELS 6 Xposition Yposition Zposition Zrotation Xrotation Yrotation 
						End Site
						{
							OFFSET 0.0 0.0 0.0
						}
					}
				}
				JOINT Shoulder_L
				{
					OFFSET 12.9942 -0.242716 4.98039
					CHANNELS 6 Xposition Yposition Zposition Zrotation Xrotation Yrotation 
					JOINT UpperArm_L
					{
						OFFSET 5.34809 0.0 0.0
						CHANNELS 6 Xposition Yposition Zposition Zrotation Xrotation Yrotation 
						JOINT LowerArm_L
						{
							OFFSET 24.3286 1.87007e-05 0.0
							CHANNELS 6 Xposition Yposition Zposition Zrotation Xrotation Yrotation 
							JOINT Hand_L
							{
								OFFSET 22.2916 0.0 0.0
								CHANNELS 6 Xposition Yposition Zposition Zrotation Xrotation Yrotation 
								End Site
								{
									OFFSET 0.0 0.0 0.0
								}
							}
						}
					}
				}
				JOINT Shoulder_R
				{
					OFFSET 12.9945 -0.242716 -4.98039
					CHANNELS 6 Xposition Yposition Zposition Zrotation Xrotation Yrotation 
					JOINT UpperArm_R
					{
						OFFSET -5.34813 0.0 0.0
						CHANNELS 6 Xposition Yposition Zposition Zrotation Xrotation Yrotation 
						JOINT LowerArm_R
						{
							OFFSET -24.3289 0.000322201 0.0
							CHANNELS 6 Xposition Yposition Zposition Zrotation Xrotation Yrotation 
							JOINT Hand_R
							{
								OFFSET -22.2915 -0.000108084 0.0
								CHANNELS 6 Xposition Yposition Zposition Zrotation Xrotation Yrotation 
								End Site
								{
									OFFSET 0.0 0.0 0.0
								}
							}
						}
					}
				}
			}
		}
		JOINT UpperLeg_L
		{
			OFFSET -2.19248 -6.46944 0.0
			CHANNELS 6 Xposition Yposition Zposition Zrotation Xrotation Yrotation 
			JOINT LowerLeg_L
			{
				OFFSET 39.0811 0.0 -1.23785e-05
				CHANNELS 6 Xposition Yposition Zposition Zrotation Xrotation Yrotation 
				JOINT Foot_L
				{
					OFFSET 40.9854 0.0 -1.26872e-05
					CHANNELS 6 Xposition Yposition Zposition Zrotation Xrotation Yrotation 
					JOINT Toes_L
					{
						OFFSET 11.7543 0.0 0.0
						CHANNELS 6 Xposition Yposition Zposition Zrotation Xrotation Yrotation 
						End Site
						{
							OFFSET 0.0 0.0 0.0
						}
					}
				}
			}
		}
		JOINT UpperLeg_R
		{
			OFFSET -2.19251 6.46944 0.0
			CHANNELS 6 Xposition Yposition Zposition Zrotation Xrotation Yrotation 
			JOINT LowerLeg_R
			{
				OFFSET -39.0811 -0.00228153 -0.0401928
				CHANNELS 6 Xposition Yposition Zposition Zrotation Xrotation Yrotation 
				JOINT Foot_R
				{
					OFFSET -40.9854 0.0 0.0
					CHANNELS 6 Xposition Yposition Zposition Zrotation Xrotation Yrotation 
					JOINT Toes_R
					{
						OFFSET -11.7543 0.0 0.0
						CHANNELS 6 Xposition Yposition Zposition Zrotation Xrotation Yrotation 
						End Site
						{
							OFFSET 0.0 0.0 0.0
						}
					}
				}
			}
		}
	}
}
MOTION
Frames:	4
Frame Time:	0.0333333
0.000000 0.000000 0.000000 0.000000 0.000000 -0.000000 122.446000 90.322800 149.187000 94.815000 -33.031500 8.098310 15.735700 0.000005 -0.000001 73.053900 84.449100 -73.671100 8.984550 -0.406207 -0.000000 2.840820 -3.206290 -1.153770 16.377300 -0.000001 -0.000001 -0.477279 -6.424120 -2.589540 6.456720 -0.000001 -0.000000 -8.201800 -5.841080 -8.426840 12.994200 -0.242716 4.980390 -91.469800 5.567480 -75.185900 5.348090 -0.000007 -0.000001 -53.685600 27.945800 -23.807500 24.328600 0.000019 0.000005 6.673060 21.651900 -17.593700 22.291600 -0.000001 0.000005 12.427800 5.197590 2.779510 12.994500 -0.242716 -4.980390 88.419200 9.635170 -80.637000 -5.348130 -0.000001 -0.000004 -67.571700 31.487700 -3.526110 -24.328900 0.000322 -0.000009 1.455660 5.521930 -14.808300 -22.291500 -0.000108 -0.000004 12.255200 5.350700 -1.395680 -2.192480 -6.469440 -0.000000 -177.861000 -10.510400 0.103688 39.081100 -0.000007 -0.000012 -0.015955 0.025360 32.176500 40.985400 -0.000006 -0.000013 1.334130 7.721620 -68.747500 11.754300 -0.000000 0.000003 -1.242700 -1.542260 -21.673900 -2.192510 6.469440 -0.000001 179.546000 14.234000 161.575000 -39.081100 -0.002282 -0.040193 0.069360 -0.036638 61.025100 -40.985400 0.000008 0.000006 8.233420 -5.535690 -60.663900 -11.754300 -0.000006 -0.000006 -0.022413 -0.180305 -23.944500
0.000000 0.000000 0.000000 0.000000 0.000000 -0.000000 121.077000 90.602100 150.913000 94.975000 -33.735800 7.363210 15.735700 0.000005 -0.000001 69.865900 84.636200 -70.485200 8.984550 -0.406207 -0.000000 2.290920 -3.660280 -1.164590 16.377300 -0.000001 -0.000001 -0.634077 -6.558960 -2.378320 6.456720 -0.000001 -0.000000 -7.915500 -5.784640 -8.124140 12.994200 -0.242716 4.980390 -91.396300 5.365590 -75.390400 5.348090 -0.000007 -0.000001 -52.158900 26.420700 -26.953500 24.328600 0.000019 0.000005 7.411820 20.397000 -20.469500 22.291600 -0.000001 0.000005 12.916800 5.198830 2.748610 12.994500 -0.242716 -4.980390 88.394400 9.244400 -80.102500 -5.348130 -0.000001 -0.000004 -67.516500 30.989900 -0.871351 -24.328900 0.000322 -0.000009 1.438550 4.768050 -16.823500 -22.291500 -0.000108 -0.000004 12.870400 5.370470 -1.998320 -2.192480 -6.469440 -0.000000 -177.609000 -11.095000 1.018980 39.081100 -0.000007 -0.000012 -0.016597 0.027177 31.413800 40.985400 -0.000006 -0.000013 0.802453 8.086300 -67.155300 11.754300 -0.000000 0.000003 -1.058990 -1.233810 -21.695100 -2.192510 6.469440 -0.000001 -178.417000 15.778900 160.319000 -39.081100 -0.002282 -0.040193 0.041318 -0.029251 52.470200 -40.985400 0.000008 0.000006 6.995930 -1.382490 -63.101300 -11.754300 -0.000006 -0.000006 -0.022256 -0.179478 -23.910400
0.000000 0.000000 0.000000 0.000000 0.000000 -0.000000 119.631000 90.533600 152.722000 95.431800 -34.580100 6.987050 15.735700 0.000005 -0.000001 66.391700 84.777600 -67.057200 8.984550 -0.406207 -0.000000 1.785650 -4.145720 -1.265440 16.377300 -0.000001 -0.000001 -0.667324 -6.523040 -2.179700 6.456720 -0.000001 -0.000000 -7.809880 -5.537760 -7.759100 12.994200 -0.242716 4.980390 -91.300800 5.025720 -75.468900 5.348090 -0.000007 -0.000001 -51.367600 24.804400 -28.808900 24.328600 0.000019 0.000005 8.362890 18.971400 -24.333700 22.291600 -0.000001 0.000005 13.577800 5.207370 2.534580 12.994500 -0.242716 -4.980390 88.411300 8.780210 -79.701800 -5.348130 -0.000001 -0.000004 -67.356200 30.523700 1.196600 -24.328900 0.000322 -0.000009 1.403380 4.309820 -18.068100 -22.291500 -0.000108 -0.000004 13.665600 5.389050 -2.585190 -2.192480 -6.469440 -0.000000 -177.575000 -11.633500 1.843880 39.081100 -0.000007 -0.000012 -0.019873 0.032412 31.515600 40.985400 -0.000006 -0.000013 0.178327 8.140020 -66.451900 11.754300 -0.000000 0.000003 -0.015895 -0.143396 -22.428800 -2.192510 6.469440 -0.000001 -176.704000 17.863800 159.645000 -39.081100 -0.002282 -0.040193 0.019020 -0.016659 43.393600 -40.985400 0.000008 0.000006 4.668460 3.993720 -64.314000 -11.754300 -0.000006 -0.000006 -0.023290 -0.184876 -24.133200
0.000000 0.000000 0.000000 0.000000 0.000000 -0.000000 118.001000 90.174100 154.681000 96.040900 -35.654900 7.094960 15.735700 0.000005 -0.000001 63.841800 84.808100 -64.532500 8.984550 -0.406207 -0.000000 1.532500 -4.537710 -1.319940 16.377300 -0.000001 -0.000001 -0.613316 -6.353260 -2.017030 6.456720 -0.000001 -0.000000 -7.868190 -5.168720 -7.567710 12.994200 -0.242716 4.980390 -91.246600 4.809560 -75.450500 5.348090 -0.000007 -0.000001 -50.693100 23.549000 -29.973500 24.328600 0.000019 0.000005 9.055250 17.133800 -28.415100 22.291600 -0.000001 0.000005 14.535800 5.223070 2.136240 12.994500 -0.242716 -4.980390 88.425600 8.436930 -79.389600 -5.348130 -0.000001 -0.000004 -66.838800 29.589100 2.393380 -24.328900 0.000322 -0.000009 1.366340 4.113290 -18.406400 -22.291500 -0.000108 -0.000004 13.817200 5.390180 -2.621160 -2.192480 -6.469440 -0.000000 -177.550000 -12.026900 2.880820 39.081100 -0.000007 -0.000012 -0.025427 0.040071 32.398300 40.985400 -0.000006 -0.000013 -0.543025 8.076930 -66.201500 11.754300 -0.000000 0.000003 -0.027331 -0.204973 -24.968100 -2.192510 6.469440 -0.000001 -174.424000 20.772400 159.146000 -39.081100 -0.002282 -0.040193 0.007379 -0.005792 35.221400 -40.985400 0.000008 0.000006 3.894010 3.762010 -64.252000 -11.754300 -0.000006 -0.000006 -0.023255 -0.184693 -24.125600
